<svg height="480pt" viewBox="0 -16 480 480" width="480pt" xmlns="http://www.w3.org/2000/svg"><path d="m456 144h-136v-24c0-4.417969-3.582031-8-8-8h-8v-16h40c13.253906 0 24-10.746094 24-24v-48c0-13.253906-10.746094-24-24-24h-176c-13.253906 0-24 10.746094-24 24v48c0 13.253906 10.746094 24 24 24h40v16h-8c-4.417969 0-8 3.582031-8 8v24h-56v-16c0-8.835938-7.164062-16-16-16h-48c-8.835938 0-16 7.164062-16 16v16h-32c-13.253906 0-24 10.746094-24 24v256c0 13.253906 10.746094 24 24 24h432c13.253906 0 24-10.746094 24-24v-256c0-13.253906-10.746094-24-24-24zm-296-72v-48c0-4.417969 3.582031-8 8-8h176c4.417969 0 8 3.582031 8 8v48c0 4.417969-3.582031 8-8 8h-176c-4.417969 0-8-3.582031-8-8zm64 24h64v16h-64zm-16 32h96v16h-96zm-136 0h48v16h-48zm392 296c0 4.417969-3.582031 8-8 8h-432c-4.417969 0-8-3.582031-8-8v-256c0-4.417969 3.582031-8 8-8h432c4.417969 0 8 3.582031 8 8zm0 0"/><path d="m312 176c-66.273438 0-120 53.726562-120 120s53.726562 120 120 120 120-53.726562 120-120c-.074219-66.242188-53.757812-119.925781-120-120zm0 224c-57.4375 0-104-46.5625-104-104s46.5625-104 104-104 104 46.5625 104 104c-.066406 57.410156-46.589844 103.933594-104 104zm0 0"/><path d="m312 208c-48.601562 0-88 39.398438-88 88s39.398438 88 88 88 88-39.398438 88-88c-.058594-48.578125-39.421875-87.941406-88-88zm0 160c-39.765625 0-72-32.234375-72-72s32.234375-72 72-72 72 32.234375 72 72c-.046875 39.746094-32.253906 71.953125-72 72zm0 0"/><path d="m136 176h-80c-4.417969 0-8 3.582031-8 8v48c0 4.417969 3.582031 8 8 8h80c4.417969 0 8-3.582031 8-8v-48c0-4.417969-3.582031-8-8-8zm-8 48h-64v-32h64zm0 0"/><path d="m128 272h16v144h-16zm0 0"/></svg>