<svg height="480pt" viewBox="-24 0 480 480" width="480pt" xmlns="http://www.w3.org/2000/svg"><path d="m351.042969 268-128-224c-1.539063-2.332031-4.148438-3.738281-6.945313-3.738281-2.792968 0-5.402344 1.40625-6.941406 3.738281l-128 224c-1.527344 2.675781-1.386719 5.988281.367188 8.519531l63.824218 92.199219c-14.523437 3.066406-25.015625 15.738281-25.3125 30.578125s9.675782 27.921875 24.0625 31.566406v41.136719c0 4.417969 3.582032 8 8 8h128c4.421875 0 8-3.582031 8-8v-41.136719c14.355469-3.667969 24.292969-16.738281 23.996094-31.550781s-10.753906-27.46875-25.242188-30.558594l63.824219-92.203125c1.765625-2.539062 1.910157-5.867187.367188-8.550781zm-190.945313 196v-32h112v32zm136-64c0 8.835938-7.160156 16-16 16h-128c-8.835937 0-16-7.164062-16-16s7.164063-16 16-16h128c8.839844 0 16 7.164062 16 16zm-62.03125-185.496094c11.058594 9.164063 13.386719 25.210938 5.394532 37.144532l-14.015626 21.03125c-.878906 1.316406-1.347656 2.859374-1.347656 4.441406v16h-16v-16c.003906-1.582032-.464844-3.125-1.34375-4.441406l-14.015625-21.03125c-7.746093-11.605469-5.792969-27.136719 4.582031-36.464844 10.378907-9.328125 26.03125-9.617188 36.746094-.679688zm-29.96875 102.617188c-2.207031 0-4-1.792969-4-4 0-2.210938 1.792969-4 4-4h24c2.210938 0 4 1.789062 4 4 0 2.207031-1.789062 4-4 4zm4 16h16v34.878906h-16zm59.808594 34.878906h-27.808594v-37.753906c-.042968-.355469-.113281-.707032-.214844-1.054688 5.132813-3.695312 8.191407-9.621094 8.234376-15.945312.042968-6.324219-2.9375-12.289063-8.019532-16.054688v-17.679687l3.203125-4.800781 17.070313 8.90625c2.539062 1.371093 5.621094 1.269531 8.0625-.269532 2.441406-1.535156 3.871094-4.269531 3.730468-7.148437-.136718-2.882813-1.816406-5.46875-4.394531-6.765625l-15.550781-8.113282.527344-.800781c6.378906-9.578125 8.726562-21.285156 6.546875-32.582031l16.566406-8.890625c3.84375-2.113281 5.265625-6.925781 3.191406-10.792969-2.074219-3.863281-6.875-5.335937-10.757812-3.300781l-14.859375 8c-6.433594-10.699219-17.203125-18.070313-29.503906-20.199219.070312-.25.128906-.5.167968-.753906v-24c0-4.417969-3.578125-8-8-8-4.417968 0-8 3.582031-8 8v24c.039063.246094.085938.488281.144532.726562-12.300782 2.132813-23.066407 9.503907-29.503907 20.203126l-14.855469-8c-2.519531-1.390626-5.59375-1.316407-8.046874.191406-2.449219 1.507812-3.90625 4.214844-3.804688 7.089844.097656 2.875 1.734375 5.476562 4.285156 6.8125l16.582032 8.921874c-2.183594 11.296876.167968 22.996094 6.546874 32.574219l.519532.800781-15.554688 8.113282c-3.914062 2.042968-5.433594 6.878906-3.386718 10.792968 2.046874 3.917969 6.878906 5.433594 10.796874 3.390626l17.078126-8.914063 3.199218 4.800781v17.679688c-5.054687 3.753906-8.023437 9.6875-8 15.984375.027344 6.296875 3.042969 12.207031 8.128906 15.921875 0 .222656-.128906.40625-.128906.628906v38.28125h-27.804687l-66.746094-96.40625 118.550781-207.464844 118.554688 207.464844zm0 0"/><path d="m408.097656 48c12.21875.050781 22.523438-9.085938 23.941406-21.222656 1.414063-12.132813-6.515624-23.394532-18.417968-26.15625-11.902344-2.761719-23.976563 3.859375-28.050782 15.378906h-338.941406c-3.898437-11.019531-15.167968-17.632812-26.6875-15.65625-11.519531 1.976562-19.941406 11.96875-19.941406 23.65625s8.421875 21.679688 19.941406 23.65625c11.519532 1.976562 22.789063-4.636719 26.6875-15.65625h130.445313c-77.519531 38.929688-135.171875 108.574219-158.941407 192h-10.035156c-4.417968 0-7.9999998 3.582031-7.9999998 8v32c0 4.417969 3.5820318 8 7.9999998 8h32c4.421875 0 8-3.582031 8-8v-32c0-4.417969-3.578125-8-8-8h-5.292968c26.617187-88.242188 93.085937-158.890625 179.542968-190.832031l1.75-.640625 1.753906.640625c86.457032 31.941406 152.925782 102.589843 179.542969 190.832031h-5.296875c-4.417968 0-8 3.582031-8 8v32c0 4.417969 3.582032 8 8 8h32c4.421875 0 8-3.582031 8-8v-32c0-4.417969-3.578125-8-8-8h-10.03125c-23.769531-83.425781-81.421875-153.070312-158.941406-192h130.445312c3.378907 9.554688 12.394532 15.957031 22.527344 16zm-376 208h-16v-16h16zm384 0h-16v-16h16zm-8-240c4.421875 0 8 3.582031 8 8s-3.578125 8-8 8c-4.417968 0-8-3.582031-8-8s3.582032-8 8-8zm-384 16c-4.417968 0-8-3.582031-8-8s3.582032-8 8-8c4.421875 0 8 3.582031 8 8s-3.578125 8-8 8zm0 0"/></svg>